<?xml version="1.0" encoding="UTF-8"?>
<svg id="Layer_1" data-name="Layer 1" xmlns="http://www.w3.org/2000/svg" viewBox="0 0 277.09 121.14">
  <defs>
    <style>
      .cls-1 {
        stroke: #000;
        stroke-miterlimit: 10;
        stroke-width: .5px;
      }
    </style>
  </defs>
  <g id="EfzMud.tif">
    <g>
      <path class="cls-1" d="m24.66,26.48c-2.28,1.16-4.73,2.08-6.79,3.54-2.82,2-5.41,1.57-7.71-.38-1.84-1.56-3.51-3.5-4.72-5.59-2.05-3.53-.45-7.07,3.42-8.3,9.53-3.04,19.3-5.1,29.21-6.36,13.04-1.66,26.1-3.1,39.17-4.53,5.02-.55,10.07-.76,15.1-1.21,1.54-.14,3.05-.66,4.6-.87.56-.08,1.32.05,1.75.39,4.15,3.3,6.13,7.79,6.57,12.94.21,2.48-1.5,3.47-3.92,2.98-2.98-.6-6.01-1.16-9.04-1.24-16.15-.45-32.13,1.33-48.02,4.01-1.97.33-3.92.73-5.88,1.1-.21.04-.41.12-.73.22.25.27.39.45.55.61,2.62,2.63,2.89,4.39,1.49,7.74-1.4,3.35-2.65,6.76-3.94,10.15-.2.52-.3,1.09-.53,1.9,3.23-.34,6.19-.62,9.14-.96,3.77-.44,5.6.37,7.3,3.77,1.23,2.47,2.2,5.08,1.15,7.93-.47,1.27-1.31,1.61-2.7,1.69-5.55.34-11.1.84-16.63,1.44-.61.07-1.47,1.04-1.62,1.72-1.04,4.81-2.09,9.63-2.82,14.49-1.57,10.52-2.11,21.12-1.77,31.76.14,4.29-2.7,6.89-5.81,9.06-1.86,1.3-4.14-.17-4.53-2.76-.37-2.43-.56-4.89-.74-7.35-1-13.77-1.27-27.54.22-41.29.07-.62,0-1.25,0-2.24-1.48.73-2.79,1.22-3.94,1.97-1.57,1.03-3.09,1.04-4.63.13-2.98-1.76-4.93-4.32-5.66-7.71-.62-2.87.39-4.55,3.21-5.3,3.97-1.05,7.96-2.01,11.96-2.94,1.27-.3,2.02-.88,2.41-2.19,1.51-5.17,3.12-10.32,4.69-15.48.24-.77.42-1.56.63-2.35-.13-.17-.27-.33-.4-.5Z"/>
      <path class="cls-1" d="m166.13,38.75h-3.82c0,.91.08,1.72-.02,2.51-.21,1.61-.27,3.3-.83,4.79-.81,2.13-2.66,3.33-4.92,3.45-2.27.12-4.13-1-5.26-2.94-.46-.79-.43-1.91-.49-2.89-.14-2.26-.47-4.54-2.88-5.37-2.52-.87-4.21.86-5.69,2.6-2.43,2.85-2.81,5.54-.48,8.67,2.04,2.73,4.61,5.11,7.18,7.39,2,1.78,4.44,3.07,6.53,4.77,7.94,6.41,8.81,15.32,2.03,23.02-4.72,5.37-10.75,8.2-18.05,6.99-6.76-1.12-9.4-5.98-7.13-12.46,1.26-3.59,3.67-6.38,6.27-9.02,1.44-1.46,2.98-2.83,4.45-4.26.41-.4.72-.88,1.22-1.51-1.5-1.14-2.96-2.09-4.24-3.25-2.83-2.54-5.78-4.99-8.29-7.82-7.12-7.98-3.57-16.16,2.46-20.99,3.09-2.47,6.63-3.94,10.54-4.52.36-.79.58-1.68,1.1-2.33,1.54-1.93,3.58-2.43,5.55-.88,3.54,2.79,7.46,3.38,11.73,2.99,1.34-.12,2.71-.12,4.05,0,1.18.1,1.68-.46,2-1.46,1.68-5.24,3.42-10.46,5.07-15.71,1.2-3.82,2.59-4.52,6.42-3.27,2.83.92,4.91,2.67,6.39,5.2,1.03,1.77,1.03,3.53.1,5.36-1.53,3.01-2.97,6.07-4.68,9.57,1.25,0,1.92,0,2.59,0,3.76-.03,7.52-.06,11.28-.08.47,0,.94-.05,1.41,0,3.17.34,3.81,2.95,4.62,5.31.87,2.54.33,4.6-1.43,5.66-.58.36-1.43.43-2.14.4-5.75-.23-11.49-.5-17.23-.81-1.39-.08-2.21.44-2.61,1.77-2.79,9.03-4.51,18.21-4.11,27.71.05,1.1.25,2.23.57,3.28.66,2.18,2.09,2.6,3.85,1.2,1.73-1.38,2.7-3.21,3.11-5.36.63-3.31,1.61-4.08,4.66-3.63,2.52.38,4.51,2.79,3.84,5.33-.61,2.33-1.72,4.59-2.96,6.68-1.8,3.05-4.58,5.18-7.75,6.72-4.68,2.27-9.3.7-11.83-3.87-2.25-4.07-2.81-8.54-3.23-13.05-.75-8.11-.19-16.17.92-24.21.07-.52.09-1.04.14-1.66Zm-14.56,30.84c-.27-.04-.55-.08-.82-.12-3.68,2.73-6.95,5.85-8.91,10.12-.77,1.68.04,2.6,1.88,2.38,3.49-.41,7.7-4.41,8.17-8.02.18-1.42-.2-2.91-.32-4.36Z"/>
      <path class="cls-1" d="m205.33,74.38c-.49-.34-.72-.53-.97-.67-5.21-2.75-7.07-7.38-6.34-12.82.8-6.02,2.05-12.01,3.58-17.89,1.15-4.4,2.97-8.64,4.63-12.9.99-2.54,2.43-3.07,4.86-1.87,2.63,1.3,4.81,3.09,5.98,5.93.83,2.01.77,3.9.04,5.96-1.98,5.57-3.83,11.19-5.62,16.82-.38,1.18-.3,2.5-.43,3.76.19.15.39.31.58.46.82-.59,1.78-1.05,2.42-1.79,5.52-6.33,9.75-13.47,13.02-21.19.64-1.51,1.14-3.08,1.79-4.58.91-2.08,2.19-2.8,4.37-2.06,1.86.63,3.71,1.5,5.33,2.61,2.44,1.68,3.06,3.65,2.06,6.47-2.93,8.29-6,16.53-9.01,24.79-.22.59-.42,1.19-.81,2.31,1.72-.55,3.14-.75,4.29-1.41,2.54-1.45,4.58-.44,5.97,1.18,1.84,2.14,2.53,4.75,2.51,7.51-.01,1.78-1.64,3.03-3.46,3.01-3.21-.04-6.43.06-9.64-.03-2.25-.06-3.44.97-4.38,2.97-2.25,4.77-4.54,9.53-7.15,14.12-4.05,7.12-8.81,13.73-15.09,19.11-3.07,2.63-6.53,4.65-10.58,5.33-8.59,1.46-15.75-5.56-15.02-14.62.39-4.81,2.22-9.1,4.92-13.01,5.21-7.53,12.3-12.79,20.51-16.66.42-.2.82-.43,1.63-.85Zm6.23,6.23c-7.33,2.22-13.53,5.63-18.58,10.92-3.18,3.33-6.03,6.93-6.55,11.75-.35,3.23,1.77,4.92,4.7,3.55,1.97-.93,3.88-2.24,5.45-3.76,6.55-6.31,10.93-14.1,14.99-22.47Z"/>
      <path class="cls-1" d="m268.56,77.53c1.52.08,3.07,0,4.55.27,1.43.26,2.74,1.08,2.87,2.7.13,1.59-.69,2.98-2.16,3.52-5.3,1.93-10.69,3.79-16.44,3.27-7.1-.64-11.73-5.59-12.79-13.28-1.34-9.71-.28-19.32,1.33-28.89,2.3-13.71,6.45-26.89,11.49-39.81,1.64-4.22,3.15-4.87,7.05-2.58,2.27,1.34,4.39,3.13,6.16,5.09,1.84,2.05,1.81,4.62.44,7.07-7.69,13.79-11.5,28.8-13.77,44.25-.59,4.01-.4,8.19-.1,12.26.27,3.67,2.09,5.21,5.77,5.77,1.85.28,3.73.4,5.6.59,0-.08.01-.16.02-.24Z"/>
      <path class="cls-1" d="m96.37,62.24c-.13,4.16.93,7.58,4.23,9.91,3.47,2.45,7.04,1.43,10.25-.53,2.06-1.26,3.84-3.07,5.52-4.85,2.06-2.19,3.03-2.61,4.9-1.43,2.44,1.53,3.47,4.11,2.19,6.29-.87,1.49-2.04,2.89-3.35,4.02-4.84,4.17-10.3,6.94-16.89,6.89-7.64-.06-14.27-5.08-16.73-12.31-5.25-15.43,3.79-31.88,15.94-37.91,4.27-2.12,8.81-2.87,13.51-1.86,5.33,1.14,7.95,4.79,7.49,10.22-.55,6.6-3.89,11.69-8.79,15.88-4.56,3.89-9.88,5.77-15.88,5.69-.74,0-1.49,0-2.38,0Zm.73-6.62c.18.2.37.4.55.6,2.16-.81,4.41-1.44,6.47-2.46,3.69-1.83,6.92-4.29,8.2-8.43.34-1.1.4-2.92-.25-3.53-.65-.62-2.34-.16-3.57-.15-.16,0-.33.11-.49.18-4.31,1.86-7.11,5.23-9.16,9.3-.72,1.43-1.17,2.99-1.75,4.49Z"/>
      <path class="cls-1" d="m67.88,42.5c1.59-1.4,3.41-3.04,5.27-4.62,4.12-3.51,8.76-5.83,14.26-6.17.18-.01.35-.03.53-.06,3.64-.55,5.1.75,5.09,4.52,0,2.69-1.99,5.41-4.55,5.99-10.19,2.29-16.23,9.1-20.01,18.31-2.18,5.31-2.93,10.92-2.31,16.57.48,4.36-1.91,6.81-4.93,9-1.75,1.26-4.23.23-5.03-2.18-.79-2.38-1.39-4.86-1.74-7.34-2.09-14.72-1.06-29.37,1.22-43.97.42-2.67,2.36-4.27,5.09-3.95,1.87.21,3.77.86,5.47,1.68,1.93.93,2.95,2.65,2.65,4.92-.35,2.6-.72,5.21-1.01,7.3Z"/>
    </g>
  </g>
</svg>